<?xml version="1.0" encoding="utf-8"?><svg version="1.1" id="Ebene_1" xmlns="http://www.w3.org/2000/svg" xmlns:xlink="http://www.w3.org/1999/xlink" x="0px" y="0px"  viewBox="0 0 36 36" style="enable-background:new 0 0 36 36;" xml:space="preserve"><style type="text/css"> .st0{fill:#082A54;}</style><g> <circle class="st0" cx="32.5" cy="31.5" r="2"/> <rect x="10" y="17" class="st0" width="5" height="1"/> <rect x="10" y="19" class="st0" width="5" height="1"/> <rect x="10" y="21" class="st0" width="5" height="1"/> <rect x="10" y="23" class="st0" width="5" height="1"/> <rect x="10" y="25" class="st0" width="5" height="1"/> <path class="st0" d="M0,0v36h36V0H0z M1,26h1v-1H1v-1h3v-1H1v-1h3v-1H1v-1h2v-1H1v-1h4v-1H1v-1h7v11H1V26z M32.5,28  c-1.9,0-3.5,1.6-3.5,3.5c0,1.9,1.6,3.5,3.5,3.5c1,0,1.9-0.4,2.5-1.1V35h-2.5H1v-7h7h1h8V13H1V1h34v7h-4.9c-2.2,0-4,1.7-4.1,3.9  L22,11v18l4-0.8v0.4c0,0.8,0.6,1.4,1.4,1.4H28c0.4,0,0.8-0.2,1.1-0.6c0.7-1.1,2-1.9,3.4-1.9c0.9,0,1.8,0.4,2.5,0.9v0.7  C34.4,28.4,33.5,28,32.5,28z M35,31.5c0,1.4-1.1,2.5-2.5,2.5S30,32.9,30,31.5s1.1-2.5,2.5-2.5C33.9,29,35,30.1,35,31.5z M16,16v11  H9V16H16z M11,15v-1h5v1H11z M27,23v-1h8v1H27z M35,25v2.2c-0.7-0.4-1.6-0.7-2.5-0.7c-1.8,0-3.4,1-4.3,2.5h-0.8  c-0.2,0-0.4-0.2-0.4-0.4V28v-3H35z M27,21v-8.9c0-1.7,1.4-3.1,3.1-3.1H35v12H27z M26,13v14.2l-3,0.6V12.3L26,13z"/></g></svg>