<?xml version="1.0" encoding="utf-8"?><svg version="1.1" id="Ebene_1" xmlns="http://www.w3.org/2000/svg" xmlns:xlink="http://www.w3.org/1999/xlink" x="0px" y="0px"  viewBox="0 0 36 36" style="enable-background:new 0 0 36 36;" xml:space="preserve"><style type="text/css"> .st0{display:none;} .st1{fill:#FFFFFF;} .st2{fill:#082A54;}</style><g id="EkBW4w_1_" class="st0"></g><rect x="5.4" y="2.9" transform="matrix(0.7071 -0.7071 0.7071 0.7071 -4.2341 9.5538)" class="st1" width="8" height="14"/><g> <path class="st2" d="M7.3,2.2L1.6,7.8l9.9,9.9l5.7-5.7L7.3,2.2z M11.5,16.3L3,7.8l4.2-4.2l8.5,8.5L11.5,16.3z"/> <path class="st2" d="M5.1,8.5l2.1,2.1C7,9.8,7.2,9,7.8,8.3s1.5-0.8,2.3-0.6L8,5.7c-0.4,0.4-1,0.4-1.4,0L5.1,7.1  C5.5,7.5,5.5,8.1,5.1,8.5z"/> <path class="st2" d="M11,11.6c-0.6,0.6-1.5,0.8-2.3,0.6l2.1,2.1c0.4-0.4,1-0.4,1.4,0l1.4-1.4c-0.4-0.4-0.4-1,0-1.4l-2-2.2  C11.8,10.1,11.6,10.9,11,11.6z"/></g><polygon class="st1" points="4.5,5.6 11.4,1.6 18.4,13.7 11.5,17.6 "/><g> <path class="st2" d="M11.4,1.6l-6.9,4l7,12.1l6.9-4L11.4,1.6z M11.9,16.3l-6-10.4l5.2-3l6,10.4L11.9,16.3z"/> <path class="st2" d="M7.7,7.2l1.5,2.5c0-0.8,0.4-1.6,1.1-2c0.8-0.4,1.6-0.4,2.3,0l-1.4-2.5c-0.5,0.2-1.1,0.1-1.4-0.4l-1.7,1  C8.4,6.3,8.2,6.9,7.7,7.2z"/> <path class="st2" d="M12.6,11.6c-0.8,0.4-1.6,0.4-2.3,0l1.5,2.5c0.5-0.3,1.1-0.1,1.4,0.4l1.7-1c-0.3-0.5-0.1-1.1,0.4-1.4l-1.5-2.5  C13.8,10.4,13.4,11.2,12.6,11.6z"/></g><polygon class="st1" points="10.3,3.8 18.3,3.1 19.5,17 11.5,17.7 "/><g> <path class="st2" d="M18.3,3.1l-8,0.7l1.2,13.9l8-0.7L18.3,3.1z M12.4,16.7l-1-12l6-0.5l1,12L12.4,16.7z"/> <path class="st2" d="M12.5,6.6l0.3,2.9c0.3-0.7,1-1.3,1.9-1.4c0.9-0.1,1.6,0.3,2.1,1l-0.3-2.9c-0.6,0-1-0.4-1.1-0.9l-2,0.2  C13.5,6.1,13.1,6.6,12.5,6.6z"/> <path class="st2" d="M15.1,12.7c-0.9,0.1-1.6-0.3-2.1-1l0.3,2.9c0.6,0,1,0.4,1.1,0.9l2-0.2c0-0.6,0.4-1,0.9-1.1L17,11.3  C16.6,12.1,15.9,12.6,15.1,12.7z"/></g><g> <rect x="22" y="22.7" class="st2" width="5" height="1"/> <rect x="22" y="24.7" class="st2" width="5" height="1"/> <rect x="22" y="26.7" class="st2" width="5" height="1"/> <rect x="22" y="28.7" class="st2" width="5" height="1"/> <path class="st2" d="M0,0v36h36V0H0z M35,22.7h-4v1h4v1h-2v1h2v1h-3v1h3v1h-3v1h3v1h-1v1h1v1h-6v-11h6V22.7z M35,18.7H20v15h8h1h6  V35H1V1h34V18.7z M28,21.7v11h-7v-11H28z M21,20.7v-1h5v1H21z"/> <path class="st2" d="M24.1,7.7c2.5,0.2,4.6,2,4.9,4.3h-1.5l2,3.5l2-3.5H30c-0.3-2.8-2.8-5-5.9-5.3V5.2l-3.5,2l3.5,2V7.7z"/></g></svg>