<?xml version="1.0" encoding="utf-8"?><svg version="1.1" id="Ebene_1" xmlns="http://www.w3.org/2000/svg" xmlns:xlink="http://www.w3.org/1999/xlink" x="0px" y="0px"  viewBox="0 0 36 36" style="enable-background:new 0 0 36 36;" xml:space="preserve"><style type="text/css"> .st0{fill:#082A54;}</style><g> <rect x="24" y="21" class="st0" width="5" height="1"/> <rect x="24" y="23" class="st0" width="5" height="1"/> <rect x="24" y="25" class="st0" width="5" height="1"/> <rect x="24" y="27" class="st0" width="5" height="1"/> <rect x="24" y="29" class="st0" width="5" height="1"/> <rect x="12" y="29" class="st0" width="9" height="1"/> <path class="st0" d="M0,0v17v4v1v1v1v1v1v1v1v1v1v2v4h36V0H0z M1,30h3v-1H1v-1h6v-1H1v-1h6v-1H1v-1h5v-1H1v-1h7v-1H1v-1h21v11H1V30  z M35,35H1v-3h21h1h8V17H1V1h34V35z M30,20v11h-7V20H30z M25,19v-1h5v1H25z"/> <rect x="23" y="5" class="st0" width="2" height="2"/> <rect x="29" y="8" class="st0" width="1" height="1"/> <rect x="30" y="9" class="st0" width="1" height="1"/> <rect x="26" y="5" class="st0" width="1" height="1"/> <rect x="27" y="12" class="st0" width="1" height="1"/> <polygon class="st0" points="25,10 27,10 27,11 29,11 29,9 27,9 27,8 29,8 29,7 31,7 31,5 29,5 29,6 27,6 27,7 25,7 25,8 24,8   24,9 23,9 23,10 24,10  "/> <polygon class="st0" points="25,12 26,12 26,11 25,11 23,11 23,13 25,13  "/> <rect x="29" y="11" class="st0" width="2" height="2"/></g></svg>